<svg xmlns="http://www.w3.org/2000/svg" width="2000" height="1180" viewBox="0 0 2000 1180" role="img" aria-labelledby="title desc">
  <title id="title">Northline Commerce Lab desktop wireframes</title>
  <desc id="desc">Low fidelity desktop wireframes for home, catalog, product, cart, and checkout pages.</desc>
  <defs>
    <style>
      .bg{fill:#e9eaec}.frame{fill:#fff;stroke:#202326;stroke-width:2}.bar{fill:#202326}.soft{fill:#f2f2f0;stroke:#c8c9c7}.mid{fill:#d8d9d7}.dark{fill:#555a5e}.accent{fill:#c66f3d}.line{stroke:#9a9d9f;stroke-width:2}.thin{stroke:#c4c6c7;stroke-width:1}.label{font:700 18px Arial,sans-serif;fill:#202326}.small{font:12px Arial,sans-serif;fill:#42474a}.tiny{font:10px Arial,sans-serif;fill:#555a5e}.white{fill:#fff}.cap{font:700 11px Arial,sans-serif;letter-spacing:1px;fill:#fff}.note{fill:#fff7f0;stroke:#c66f3d;stroke-width:2}.btn{fill:#202326}.btntext{font:700 11px Arial,sans-serif;fill:#fff}.num{fill:#c66f3d}.numtext{font:700 12px Arial,sans-serif;fill:#fff;text-anchor:middle}.dash{fill:none;stroke:#9a9d9f;stroke-dasharray:5 4}.center{text-anchor:middle}
    </style>
  </defs>
  <rect class="bg" width="2000" height="1180"/>
  <text x="60" y="52" class="label" style="font-size:28px">Northline Commerce Lab — Desktop purchase flow</text>
  <text x="60" y="78" class="small">Low-fidelity wireframe · information hierarchy, editable content, compliance messaging, and WooCommerce flow</text>

  <!-- HOME -->
  <g transform="translate(45 120)">
    <text x="0" y="-18" class="label">01 Home</text><circle cx="354" cy="-25" r="13" class="num"/><text x="354" y="-21" class="numtext">1</text>
    <rect class="frame" width="370" height="960" rx="4"/>
    <rect class="accent" x="0" y="0" width="370" height="28"/><text x="185" y="18" class="cap center">TECHNICAL DEMO · NO REAL SALES</text>
    <rect class="bar" x="0" y="28" width="370" height="58"/><text x="18" y="63" class="cap">NORTHLINE</text><text x="140" y="63" class="tiny white">SHOP  GUIDES  FAQ</text><rect x="315" y="45" width="35" height="22" rx="11" fill="#fff"/>
    <rect class="soft" x="16" y="103" width="338" height="210"/>
    <text x="34" y="139" class="tiny">EYEBROW / EDITABLE BANNER</text><rect class="dark" x="34" y="158" width="190" height="14"/><rect class="mid" x="34" y="183" width="235" height="8"/><rect class="mid" x="34" y="200" width="210" height="8"/><rect class="btn" x="34" y="229" width="105" height="34" rx="2"/><text x="86" y="250" class="btntext center">SHOP CATALOG</text><rect class="dash" x="278" y="126" width="52" height="150"/><text x="304" y="205" class="tiny center" transform="rotate(-90 304 205)">neutral product art</text>
    <rect class="bar" x="16" y="325" width="338" height="44"/><text x="185" y="352" class="cap center">AGE-RESTRICTED · ID AT DELIVERY · REGION RULES</text>
    <text x="16" y="402" class="label">Shop by category</text>
    <g transform="translate(16 416)"><rect class="soft" width="78" height="102"/><rect class="mid" x="12" y="12" width="54" height="56"/><text x="39" y="86" class="tiny center">Devices</text><rect class="soft" x="87" width="78" height="102"/><rect class="mid" x="99" y="12" width="54" height="56"/><text x="126" y="86" class="tiny center">Pods</text><rect class="soft" x="174" width="78" height="102"/><rect class="mid" x="186" y="12" width="54" height="56"/><text x="213" y="86" class="tiny center">Liquids</text><rect class="soft" x="261" width="77" height="102"/><rect class="mid" x="273" y="12" width="53" height="56"/><text x="299" y="86" class="tiny center">Accessories</text></g>
    <text x="16" y="558" class="label">Featured products</text>
    <g transform="translate(16 572)"><rect class="soft" width="104" height="154"/><rect class="mid" x="12" y="12" width="80" height="78"/><rect class="dark" x="12" y="103" width="70" height="7"/><rect class="mid" x="12" y="119" width="45" height="7"/><rect class="soft" x="117" width="104" height="154"/><rect class="mid" x="129" y="12" width="80" height="78"/><rect class="dark" x="129" y="103" width="70" height="7"/><rect class="mid" x="129" y="119" width="45" height="7"/><rect class="soft" x="234" width="104" height="154"/><rect class="mid" x="246" y="12" width="80" height="78"/><rect class="dark" x="246" y="103" width="70" height="7"/><rect class="mid" x="246" y="119" width="45" height="7"/></g>
    <rect class="note" x="16" y="750" width="338" height="98"/><text x="32" y="779" class="small" style="font-weight:700">Responsible retail information</text><rect class="mid" x="32" y="792" width="278" height="7"/><rect class="mid" x="32" y="808" width="242" height="7"/><text x="32" y="835" class="tiny">Read demo policies →</text>
    <rect class="bar" x="0" y="876" width="370" height="84"/><text x="18" y="905" class="cap">NORTHLINE COMMERCE LAB</text><text x="18" y="930" class="tiny white">Policies · Operations · GitHub · Demo disclaimer</text>
  </g>

  <!-- CATALOG -->
  <g transform="translate(430 120)">
    <text x="0" y="-18" class="label">02 Catalog</text><circle cx="354" cy="-25" r="13" class="num"/><text x="354" y="-21" class="numtext">2</text>
    <rect class="frame" width="370" height="960" rx="4"/><rect class="accent" width="370" height="28"/><text x="185" y="18" class="cap center">DEMO NOTICE</text><rect class="bar" y="28" width="370" height="58"/><text x="18" y="63" class="cap">NORTHLINE</text>
    <text x="16" y="117" class="tiny">Home / Shop</text><text x="16" y="150" class="label">Product catalog</text><rect class="mid" x="16" y="164" width="210" height="7"/>
    <rect class="soft" x="16" y="190" width="102" height="570"/><text x="28" y="217" class="small" style="font-weight:700">FILTERS</text><line class="thin" x1="28" y1="230" x2="106" y2="230"/><text x="28" y="255" class="tiny">Category</text><rect class="white" x="28" y="267" width="11" height="11" stroke="#777"/><text x="46" y="277" class="tiny">Devices</text><rect class="white" x="28" y="290" width="11" height="11" stroke="#777"/><text x="46" y="300" class="tiny">Pods</text><text x="28" y="335" class="tiny">Availability</text><rect class="white" x="28" y="347" width="11" height="11" stroke="#777"/><text x="46" y="357" class="tiny">In stock</text><text x="28" y="392" class="tiny">Price</text><line class="line" x1="30" y1="410" x2="103" y2="410"/><circle cx="42" cy="410" r="5" class="accent"/><circle cx="92" cy="410" r="5" class="accent"/><text x="28" y="446" class="tiny">Region eligible</text><rect class="white" x="28" y="458" width="11" height="11" stroke="#777"/><text x="46" y="468" class="tiny">British Columbia</text>
    <rect class="soft" x="129" y="190" width="225" height="38"/><text x="143" y="214" class="tiny">12 products</text><rect class="white" x="255" y="198" width="87" height="22" stroke="#aaa"/><text x="298" y="213" class="tiny center">Sort: Featured</text>
    <g transform="translate(129 240)"><rect class="soft" width="106" height="192"/><rect class="mid" x="10" y="10" width="86" height="96"/><rect class="accent" x="10" y="10" width="34" height="16"/><text x="27" y="21" class="tiny white center">SALE</text><rect class="dark" x="10" y="122" width="76" height="8"/><rect class="mid" x="10" y="140" width="52" height="7"/><rect class="btn" x="10" y="158" width="86" height="24"/><text x="53" y="174" class="btntext center">VIEW</text><rect class="soft" x="119" width="106" height="192"/><rect class="mid" x="129" y="10" width="86" height="96"/><rect class="dark" x="129" y="122" width="76" height="8"/><rect class="mid" x="129" y="140" width="52" height="7"/><rect class="btn" x="129" y="158" width="86" height="24"/><text x="172" y="174" class="btntext center">SELECT</text></g>
    <g transform="translate(129 445)"><rect class="soft" width="106" height="192"/><rect class="mid" x="10" y="10" width="86" height="96"/><rect class="dark" x="10" y="122" width="76" height="8"/><rect class="mid" x="10" y="140" width="52" height="7"/><rect class="btn" x="10" y="158" width="86" height="24"/><text x="53" y="174" class="btntext center">VIEW</text><rect class="soft" x="119" width="106" height="192"/><rect class="mid" x="129" y="10" width="86" height="96"/><rect class="dark" x="129" y="122" width="76" height="8"/><rect class="mid" x="129" y="140" width="52" height="7"/><rect fill="#aaa" x="129" y="158" width="86" height="24"/><text x="172" y="174" class="btntext center">OUT OF STOCK</text></g>
    <g transform="translate(129 650)"><rect class="soft" width="106" height="192"/><rect class="mid" x="10" y="10" width="86" height="96"/><rect class="dark" x="10" y="122" width="76" height="8"/><rect class="mid" x="10" y="140" width="52" height="7"/><rect class="btn" x="10" y="158" width="86" height="24"/><text x="53" y="174" class="btntext center">VIEW</text><rect class="soft" x="119" width="106" height="192"/><rect class="mid" x="129" y="10" width="86" height="96"/><rect class="dark" x="129" y="122" width="76" height="8"/><rect class="mid" x="129" y="140" width="52" height="7"/><rect class="btn" x="129" y="158" width="86" height="24"/><text x="172" y="174" class="btntext center">SELECT</text></g>
    <rect class="bar" y="876" width="370" height="84"/>
  </g>

  <!-- PRODUCT -->
  <g transform="translate(815 120)">
    <text x="0" y="-18" class="label">03 Product</text><circle cx="354" cy="-25" r="13" class="num"/><text x="354" y="-21" class="numtext">3</text>
    <rect class="frame" width="370" height="960" rx="4"/><rect class="accent" width="370" height="28"/><text x="185" y="18" class="cap center">DEMO NOTICE</text><rect class="bar" y="28" width="370" height="58"/><text x="18" y="63" class="cap">NORTHLINE</text>
    <text x="16" y="112" class="tiny">Shop / Devices / Product</text><rect class="soft" x="16" y="130" width="166" height="222"/><rect class="mid" x="38" y="151" width="122" height="172"/><g transform="translate(16 362)"><rect class="mid" width="35" height="35"/><rect class="soft" x="44" width="35" height="35"/><rect class="soft" x="88" width="35" height="35"/></g>
    <g transform="translate(196 130)"><text x="0" y="16" class="tiny">FICTIONAL BRAND</text><rect class="dark" y="31" width="146" height="14"/><rect class="dark" y="53" width="112" height="14"/><text x="0" y="88" class="label">$49.00 CAD</text><rect class="mid" y="105" width="142" height="7"/><rect class="mid" y="121" width="126" height="7"/><text x="0" y="155" class="tiny">OPTION</text><rect class="white" y="166" width="158" height="31" stroke="#777"/><text x="12" y="186" class="tiny">Choose a variation</text><text x="0" y="218" class="tiny">IN STOCK · SKU NCL-001</text></g>
    <rect class="note" x="16" y="419" width="338" height="90"/><text x="31" y="445" class="small" style="font-weight:700">Restricted product information</text><text x="31" y="466" class="tiny">19+ demo rule · Delivery ID required</text><text x="31" y="484" class="tiny">Eligible regions: BC, AB · Technical demo only</text>
    <rect class="white" x="16" y="526" width="58" height="38" stroke="#777"/><text x="45" y="550" class="small center">− 1 +</text><rect class="btn" x="84" y="526" width="270" height="38"/><text x="219" y="550" class="btntext center">ADD TO CART</text>
    <rect class="soft" x="16" y="581" width="338" height="42"/><text x="31" y="607" class="small">Description</text><text x="337" y="607" class="small center">+</text><rect class="soft" x="16" y="630" width="338" height="42"/><text x="31" y="656" class="small">Specifications</text><text x="337" y="656" class="small center">+</text><rect class="soft" x="16" y="679" width="338" height="42"/><text x="31" y="705" class="small">Shipping &amp; returns</text><text x="337" y="705" class="small center">+</text>
    <text x="16" y="760" class="label">Related products</text><g transform="translate(16 777)"><rect class="soft" width="104" height="72"/><rect class="mid" x="9" y="9" width="48" height="54"/><rect class="dark" x="64" y="18" width="30" height="6"/><rect class="mid" x="64" y="34" width="24" height="6"/><rect class="soft" x="117" width="104" height="72"/><rect class="mid" x="126" y="9" width="48" height="54"/><rect class="dark" x="181" y="18" width="30" height="6"/><rect class="mid" x="181" y="34" width="24" height="6"/><rect class="soft" x="234" width="104" height="72"/><rect class="mid" x="243" y="9" width="48" height="54"/><rect class="dark" x="298" y="18" width="30" height="6"/></g><rect class="bar" y="876" width="370" height="84"/>
  </g>

  <!-- CART -->
  <g transform="translate(1200 120)">
    <text x="0" y="-18" class="label">04 Cart</text><circle cx="354" cy="-25" r="13" class="num"/><text x="354" y="-21" class="numtext">4</text>
    <rect class="frame" width="370" height="960" rx="4"/><rect class="accent" width="370" height="28"/><text x="185" y="18" class="cap center">DEMO NOTICE</text><rect class="bar" y="28" width="370" height="58"/><text x="18" y="63" class="cap">NORTHLINE</text><text x="16" y="130" class="label">Your cart</text><text x="344" y="130" class="tiny" text-anchor="end">2 items</text>
    <rect class="soft" x="16" y="153" width="218" height="138"/><rect class="mid" x="28" y="168" width="62" height="76"/><rect class="dark" x="102" y="170" width="102" height="8"/><rect class="mid" x="102" y="189" width="68" height="7"/><rect class="white" x="102" y="215" width="66" height="25" stroke="#777"/><text x="135" y="232" class="tiny center">− 1 +</text><text x="218" y="267" class="small" text-anchor="end">$49.00</text>
    <rect class="soft" x="16" y="303" width="218" height="138"/><rect class="mid" x="28" y="318" width="62" height="76"/><rect class="dark" x="102" y="320" width="102" height="8"/><rect class="mid" x="102" y="339" width="68" height="7"/><rect class="white" x="102" y="365" width="66" height="25" stroke="#777"/><text x="135" y="382" class="tiny center">− 1 +</text><text x="218" y="417" class="small" text-anchor="end">$24.00</text>
    <rect class="note" x="16" y="458" width="218" height="86"/><text x="29" y="484" class="small" style="font-weight:700">Cart compliance check</text><text x="29" y="505" class="tiny">Destination will be checked</text><text x="29" y="521" class="tiny">again during checkout.</text>
    <rect class="white" x="16" y="561" width="144" height="34" stroke="#777"/><text x="28" y="582" class="tiny">Coupon code</text><rect class="btn" x="168" y="561" width="66" height="34"/><text x="201" y="582" class="btntext center">APPLY</text>
    <rect class="soft" x="248" y="153" width="106" height="442"/><text x="262" y="181" class="small" style="font-weight:700">SUMMARY</text><line class="thin" x1="262" y1="194" x2="340" y2="194"/><text x="262" y="221" class="tiny">Subtotal</text><text x="340" y="221" class="tiny" text-anchor="end">$73</text><text x="262" y="251" class="tiny">Shipping</text><text x="340" y="251" class="tiny" text-anchor="end">Calculated</text><text x="262" y="281" class="tiny">Tax</text><text x="340" y="281" class="tiny" text-anchor="end">Demo</text><line class="thin" x1="262" y1="302" x2="340" y2="302"/><text x="262" y="329" class="small" style="font-weight:700">Total</text><text x="340" y="329" class="small" text-anchor="end">$73</text><rect class="btn" x="260" y="352" width="82" height="50"/><text x="301" y="374" class="btntext center">GO TO</text><text x="301" y="389" class="btntext center">CHECKOUT</text><text x="301" y="432" class="tiny center">Secure demo</text><text x="301" y="450" class="tiny center">No live payment</text>
    <text x="16" y="650" class="label">You may also need</text><g transform="translate(16 668)"><rect class="soft" width="104" height="92"/><rect class="mid" x="10" y="10" width="40" height="54"/><rect class="dark" x="58" y="18" width="35" height="6"/><rect class="mid" x="58" y="34" width="28" height="6"/><rect class="soft" x="117" width="104" height="92"/><rect class="mid" x="127" y="10" width="40" height="54"/><rect class="dark" x="175" y="18" width="35" height="6"/></g><rect class="bar" y="876" width="370" height="84"/>
  </g>

  <!-- CHECKOUT -->
  <g transform="translate(1585 120)">
    <text x="0" y="-18" class="label">05 Checkout</text><circle cx="354" cy="-25" r="13" class="num"/><text x="354" y="-21" class="numtext">5</text>
    <rect class="frame" width="370" height="960" rx="4"/><rect class="accent" width="370" height="28"/><text x="185" y="18" class="cap center">DEMO CHECKOUT · NO PAYMENT CAPTURED</text><rect class="bar" y="28" width="370" height="58"/><text x="18" y="63" class="cap">NORTHLINE</text><text x="16" y="125" class="label">Checkout</text>
    <g transform="translate(16 148)"><rect class="soft" width="218" height="139"/><text x="14" y="25" class="small" style="font-weight:700">1. Contact</text><rect class="white" x="14" y="40" width="190" height="32" stroke="#aaa"/><text x="25" y="60" class="tiny">Email address</text><rect class="white" x="14" y="84" width="190" height="32" stroke="#aaa"/><text x="25" y="104" class="tiny">Phone</text></g>
    <g transform="translate(16 299)"><rect class="soft" width="218" height="244"/><text x="14" y="25" class="small" style="font-weight:700">2. Delivery address</text><rect class="white" x="14" y="40" width="92" height="32" stroke="#aaa"/><rect class="white" x="112" y="40" width="92" height="32" stroke="#aaa"/><rect class="white" x="14" y="82" width="190" height="32" stroke="#aaa"/><rect class="white" x="14" y="124" width="92" height="32" stroke="#aaa"/><rect class="white" x="112" y="124" width="92" height="32" stroke="#aaa"/><rect class="white" x="14" y="166" width="190" height="32" stroke="#aaa"/><text x="25" y="186" class="tiny">Province / region</text><text x="14" y="222" class="tiny">Server-side eligibility check runs here</text></g>
    <g transform="translate(16 555)"><rect class="soft" width="218" height="120"/><text x="14" y="25" class="small" style="font-weight:700">3. Delivery method</text><rect class="white" x="14" y="40" width="190" height="28" stroke="#aaa"/><text x="28" y="58" class="tiny">○ Standard delivery</text><rect class="white" x="14" y="76" width="190" height="28" stroke="#aaa"/><text x="28" y="94" class="tiny">○ Local pickup</text></g>
    <g transform="translate(16 687)"><rect class="soft" width="218" height="112"/><text x="14" y="25" class="small" style="font-weight:700">4. Demo payment</text><rect class="white" x="14" y="40" width="190" height="50" stroke="#aaa"/><text x="28" y="61" class="tiny">● Test order gateway</text><text x="28" y="78" class="tiny">No card or external API</text></g>
    <rect class="note" x="248" y="148" width="106" height="198"/><text x="261" y="176" class="small" style="font-weight:700">ORDER</text><rect class="mid" x="261" y="194" width="80" height="45"/><text x="261" y="262" class="tiny">2 items</text><text x="341" y="262" class="tiny" text-anchor="end">$73</text><text x="261" y="286" class="tiny">Shipping</text><text x="341" y="286" class="tiny" text-anchor="end">TBD</text><line class="thin" x1="261" y1="301" x2="341" y2="301"/><text x="261" y="326" class="small" style="font-weight:700">TOTAL</text>
    <rect class="note" x="248" y="362" width="106" height="180"/><text x="261" y="389" class="small" style="font-weight:700">REVIEW</text><text x="261" y="414" class="tiny">• 19+ demo</text><text x="261" y="435" class="tiny">• ID at delivery</text><text x="261" y="456" class="tiny">• Region rules</text><text x="261" y="477" class="tiny">• Fictional tax</text><text x="261" y="506" class="tiny">Not legal advice</text>
    <rect class="btn" x="248" y="557" width="106" height="58"/><text x="301" y="582" class="btntext center">PLACE DEMO</text><text x="301" y="598" class="btntext center">ORDER</text><text x="301" y="641" class="tiny center">Order data stays</text><text x="301" y="657" class="tiny center">inside browser</text>
    <rect class="bar" y="876" width="370" height="84"/>
  </g>

  <g transform="translate(45 1128)"><circle r="7" class="accent"/><text x="15" y="4" class="small">Orange marks compliance, decision, or primary action—not promotional decoration.</text><text x="720" y="4" class="small">All product names, rules, prices, and policies are fictional demo data.</text></g>
</svg>
